<svg xmlns="http://www.w3.org/2000/svg" width="800" height="500" xmlns:v="https://vecta.io/nano"><path d="M471.688 117.375l3.012.336L477 118l.052 23.705.024 11.007.019 10.621.018 6.027v3.7l.007 3.264C477 179 477 179 476 182l2.247-1.209 8.269-4.4 3.576-1.912 5.146-2.733 3.126-1.666C501 169 501 169 504 170c3.171 4.712 4 6.124 4 12l-30 14c-1.869 13.381-1.869 13.381 2.941 25.336 2.899 3.029 6.048 5.71 9.349 8.29 2.42 1.945 4.539 4.158 6.71 6.374l3.875 3.313c3.488 3.01 6.429 6.261 9.398 9.773 2.197 2.436 4.63 4.457 7.16 6.535 2.153 1.896 3.81 4.12 5.566 6.379l3 2v2l1.785.758c2.508 1.407 3.839 2.898 5.652 5.117 2.642 3.126 5.3 5.635 8.563 8.125 2.813 2.625 2.813 2.625 5 5v2l1.875.875C551 289 551 289 553 291c-.154 3.129-.675 4.632-2.76 6.991l-2.369 1.993-2.757 2.372-1.519 1.286-8.59 7.525-1.907 1.69c-8.022 7.133-15.883 14.434-23.661 21.831l-2.259 2.146c-24.587 22.431-24.587 22.431-34.014 53.099.293 8.578 1.461 16.823 3.836 25.067-3 1-3 1-14 0l1-212-30.34 14.648-2.175 1.097-5.521 2.791c-13.47 6.811-26.966 13.477-40.721 19.699-6.173 2.797-12.264 5.707-18.303 8.78-5.41 2.747-10.888 5.338-16.378 7.922-6.511 3.07-12.921 6.259-19.25 9.688-6.384 3.454-12.871 6.525-19.548 9.374-4.77 2.05-9.422 4.301-14.059 6.634l-1.959.983L291 287l.003 1.981.049 47.644.024 23.04.019 20.074.012 10.636.008 11.854.011 3.588-.004 3.242.003 2.835C291 414 291 414 290 415c-2.353.073-4.708.084-7.062.063l-3.91-.027L276 415l.002-1.813-.1-18.737-.022-6.986-.075-10.061.028-3.138c-.122-6.138-.955-9.564-5.358-13.956L269 359l-1.941-1.82-1.621-1.305c-4.543-3.78-8.492-7.926-12.375-12.375-2.384-2.719-4.734-5.184-7.562-7.437L243 334v-2h-2l-3.508-4.285c-1.564-1.798-3.219-3.261-5.055-4.777-2.905-2.406-5.078-4.988-7.437-7.937-1.15-1.02-2.318-2.018-3.5-3-2.108-1.752-3.718-3.275-5.437-5.437-2.467-3.065-5.268-5.468-8.258-8.012C206 297 206 297 204 295c-.085-2.987.668-4.6 2.563-6.883 1.756-1.808 3.47-3.541 5.438-5.117h2v-2c1.622-1.71 3.294-3.373 5-5l1.688-1.812C222 273 222 273 224 273v-2c1.622-1.71 3.294-3.373 5-5l1.688-1.812C232 263 232 263 234 263l2-4h2l.625-1.625c1.908-3.295 4.423-5.969 7.375-8.375h2v-2h2l.75-1.734c1.443-2.616 3.132-4.413 5.25-6.516l2.125-2.141C260 235 260 235 262 235l.727-1.754c1.524-2.688 3.285-4.201 5.648-6.184 3.28-2.817 5.959-5.65 8.625-9.062h2l.75-1.75c1.433-2.579 3.034-4.311 5.25-6.25h2l.688-1.75c1.66-2.845 3.733-4.187 6.313-6.25 1.836-1.992 3.595-4.038 5.359-6.094 1.792-2.082 3.586-4.08 5.641-5.906h2l.73-1.758c1.51-2.666 3.236-4.154 5.582-6.117 2.798-2.402 5.336-4.732 7.625-7.625L323 172h2l1-3c1.62-1.712 3.296-3.372 5-5l1.594-1.656c1.43-1.486 2.915-2.919 4.406-4.344h2l.688-1.672c1.7-3.015 3.861-5.14 6.313-7.578l2.688-2.703C351 144 351 144 353 144l.762-1.789c1.393-2.487 2.848-3.792 5.051-5.586 2.629-2.209 4.931-4.37 7.063-7.062L368 127h2l2-4h2l.75-1.937C376 119 376 119 378.078 118.371L380 118l1.32 1.574c2.792 3.269 5.499 6.426 8.867 9.113C393 131 393 131 394.938 133.438c1.734 2.154 3.266 3.641 5.375 5.375 2.674 2.218 4.941 4.538 7.188 7.188 2.695 3.177 5.529 5.793 8.742 8.43 2.643 2.361 4.847 5.064 7.137 7.762 1.998 2.23 4.28 3.948 6.621 5.809 1.511 1.668 2.951 3.378 4.375 5.121 2.092 2.419 4.349 4.632 6.625 6.879l3.113 3.113 1.592 1.592L453 192c3.495-1.112 6.745-2.316 10-4l-.02-2.606-.135-24.28-.071-12.483-.058-12.041-.033-4.6-.023-6.429-.02-3.701L463 119c3.549-2.366 4.576-2.109 8.688-1.625zM377 136l-3.5 3.875-1.969 2.18c-1.737 1.795-1.737 1.795-1.531 3.945l-1.625.625c-3.295 1.908-5.969 4.423-8.375 7.375v2l-1.641.656c-3.176 1.809-5.567 4.261-8.109 6.844l-1.535 1.512c-2.843 2.519-2.843 2.519-3.715 5.988l-1.812.813c-2.186 1.187-3.601 2.283-5.187 4.188v2l-1.702.719c-2.824 1.574-4.774 3.498-7.063 5.781l-2.695 2.688L323.75 190l-2.836 2.813-2.68 2.688-2.462 2.469c-1.992 1.833-1.992 1.833-1.772 4.031l-1.702.719c-2.824 1.574-4.774 3.498-7.063 5.781l-2.695 2.688L299.75 214l-2.836 2.813-2.68 2.688-2.462 2.469c-1.992 1.833-1.992 1.833-1.772 4.031l-1.811.827c-2.127 1.14-3.514 2.245-5.213 3.938l-1.698 1.679-1.793 1.806-1.866 1.86-3.883 3.894-5.978 5.965-3.773 3.781-1.818 1.806c-3.119 2.717-3.119 2.717-4.166 6.444l-1.75.75c-2.579 1.433-4.311 3.034-6.25 5.25v2l-1.798.814c-2.208 1.188-3.668 2.393-5.437 4.154l-1.738 1.73-1.777 1.801-1.824 1.801-1.723 1.73-1.573 1.58c-1.34 1.349-1.34 1.349-1.13 3.389l-1.625.625c-2.175 1.259-3.834 2.507-5.687 4.188l-1.613 1.457c-1.296 1.734-1.296 1.734-1.008 4.148 1.16 3.208 2.705 4.751 5.184 7.082l2.465 2.348L233 305l2.813 2.938c2.044 2.126 2.044 2.126 4.438 3.188L242 312l1 3c1.621 1.711 3.295 3.373 5 5l2.375 2.438c2.015 1.967 4.03 3.764 6.188 5.563 2.884 2.43 5.089 5.045 7.438 8l4.48 3.598c1.724 1.591 2.949 3.279 4.27 5.215L275 348h2l-.027-2.561-.18-23.882-.095-12.278-.078-11.846-.043-4.522-.031-6.328-.027-3.64C277 280 277 280 278.861 278.174c2.583-1.417 5.182-2.7 7.866-3.916l3.379-1.543 3.52-1.59c7.867-3.573 15.674-7.206 23.375-11.125l3.914-1.957 1.84-.92 3.919-1.958 10.385-5.211c6.883-3.469 13.792-6.853 20.787-10.091L376 231.313l2.969-1.406c3.998-1.907 7.958-3.809 11.781-6.052 2.689-1.535 5.335-2.791 8.191-3.971 4.76-2.046 9.395-4.38 14.059-6.635L441 200c-1.742-3.78-3.978-6.125-7-9l-1.687-1.812c-1.265-1.411-1.265-1.411-3.312-1.187l-1-3-4.398-3.691c-2.373-1.939-4.461-4.117-6.602-6.309l-4-4-2.09-2.094-4.473-4.406c-2.018-2.07-3.879-4.176-5.75-6.375-2.951-3.417-6.12-6.285-9.566-9.187-3.333-3.044-6.213-6.469-9.141-9.898-1.898-2.267-1.898-2.267-4.98-3.039zm99 98v118h2c1.413-1.621 1.413-1.621 2.813-3.687 2.501-3.439 5.101-6.37 8.188-9.312l4.5-4.5 2.371-2.367 4.691-4.758c2.048-1.996 4.137-3.836 6.313-5.687 3.52-3.042 6.54-6.32 9.555-9.855 2.789-3.254 5.814-6.167 9.031-8.996l2.727-2.398 2.605-2.254c2.041-2.02 3.138-3.55 4.207-6.184-1.375-1.542-1.375-1.542-3-3h-2l-1-3-5-4-3.551-4.359c-2.286-2.588-4.917-4.749-7.539-6.988-2.43-2.102-4.668-4.352-6.91-6.652l-3.5-3.5-1.812-1.816-4.187-4.121c-2.72-2.788-5.254-5.7-7.801-8.645-1.406-1.587-2.888-3.106-4.387-4.605C482 239 482 239 479.813 236.188L478 234h-2z" fill="#3e7986"/><path d="M473 203h1l.113 2.992.199 3.883.176 3.867L475 217l3 2 1.313 2.5c2.202 3.262 3.993 3.292 7.688 4.5 4.786 3.29 8.45 7.594 12.18 11.992 2.433 2.684 5.146 4.946 7.906 7.285 2.428 2.185 4.471 4.586 6.551 7.098 2.916 3.476 6.148 6.479 9.676 9.313L526 264v2l1.785.758c2.508 1.407 3.839 2.898 5.652 5.117 2.642 3.126 5.3 5.635 8.563 8.125 2.813 2.625 2.813 2.625 5 5v2l1.875.875C551 289 551 289 553 291c-.152 3.128-.649 4.615-2.77 6.942l-2.377 1.955c-4.429 3.808-8.613 7.76-12.724 11.909l-1.868 1.881-3.894 3.933-6.192 6.24-17.581 17.719-10.811 10.885-4.104 4.145-5.714 5.752-1.705 1.742C479.342 368 479.342 368 476 368l-1 45-9-1V207l4-1c1.667-1.5 1.667-1.5 3-3zm3 31v118h2c1.413-1.621 1.413-1.621 2.813-3.687 2.501-3.439 5.101-6.37 8.188-9.312l4.5-4.5 2.371-2.367 4.691-4.758c2.048-1.996 4.137-3.836 6.313-5.687 3.52-3.042 6.54-6.32 9.555-9.855 2.789-3.254 5.814-6.167 9.031-8.996l2.727-2.398 2.605-2.254c2.041-2.02 3.138-3.55 4.207-6.184-1.375-1.542-1.375-1.542-3-3h-2l-1-3-5-4-3.551-4.359c-2.286-2.588-4.917-4.749-7.539-6.988-2.43-2.102-4.668-4.352-6.91-6.652l-3.5-3.5-1.812-1.816-4.187-4.121c-2.72-2.788-5.254-5.7-7.801-8.645-1.406-1.587-2.888-3.106-4.387-4.605C482 239 482 239 479.813 236.188L478 234h-2z" fill="#30717f"/><path d="M421 215l-1 2h2l-1 5-2.875.75L415 224l-.782 1.859c-1.803 3.17-4.63 4.172-7.823 5.645l-2.023.969-6.559 3.089-4.521 2.152-9.057 4.289-14.069 6.694-5.643 2.687c-3.959 1.879-7.889 3.783-11.757 5.842-6.288 3.34-10.594 5.295-17.766 4.773l-5 3c-2.988.547-5.97.809-9 1 .615-5.538.615-5.538 2.563-7.875L325 257l1 2c2.038-1.274 4.039-2.611 6-4v-2l1.828-.734 2.422-1.016 2.391-.984c2.439-1.146 2.439-1.146 4.145-3.176 3.087-2.912 6.513-4.173 10.402-5.777 6.337-2.711 12.494-5.605 18.563-8.875l2.116-1.134 8.089-4.366C390.177 222.5 396.552 220 406 220l-1-2 6.313-2.062 3.551-1.16C418 214 418 214 421 215z" fill="#2d6e7d"/><path d="M502 242c3.366 1.122 4.062 2.004 6.25 4.688 2.835 3.357 5.795 6.152 9.184 8.934 2.153 1.896 3.81 4.12 5.566 6.379l3 2v2l1.785.758c2.508 1.407 3.839 2.898 5.652 5.117 2.642 3.126 5.3 5.635 8.563 8.125 2.813 2.625 2.813 2.625 5 5v2l1.875.875C551 289 551 289 553 291c-.135 3.267-.714 4.688-2.936 7.111l-2.505 2.086c-5.419 4.658-10.469 9.584-15.504 14.651l-2.715 2.719-7.033 7.057-7.221 7.241L501 346l-2-3 3-1 1-2-2-1h3l1-4 2.375-.25c2.772-.478 2.772-.478 3.938-2.812L512 330l2 1-1-3 2.313-.687c3.268-1.596 4.025-3.146 5.688-6.312l2-2h3l-1-3 3-1v-5c-4.321 0-4.964.347-8.187 2.875l-2.105 1.617c-1.817 1.415-1.817 1.415-2.707 3.508h-4c1.393-3.253 2.95-5.034 5.688-7.25 3.606-3.044 6.664-6.291 9.703-9.895 1.444-1.664 2.94-3.165 4.547-4.668 2.406-2.05 2.406-2.05 2.063-5.187-2.086-2.228-2.086-2.228-4.75-4.437-6.838-5.909-6.838-5.909-9.25-8.562v-2l-1.766-.781c-2.415-1.317-4.052-2.77-5.984-4.719l-1.859-1.844C508 267 508 267 508 265l-1.625-.625c-3.295-1.908-5.969-4.423-8.375-7.375v-2l-1.687-.625c-3.238-1.925-4.995-4.414-7.312-7.375 2.564 1.099 4.064 2.068 6 4.125 2.029 2.331 2.029 2.331 6 1.875l.188 1.875c.641 2.403.641 2.403 3.375 3.375L507 259v4l7 2-1-3c.938-3.187.938-3.187 2-6h-6l-.687-3.875c-.474-2.194-.474-2.194-1.312-4.125-2.483-1.597-2.483-1.597-5-2v-4z" fill="#2b6d7b"/><path d="M330 171l2 4-2 3v3c-1.081 2.161-2.194 3.41-4 5h-2v3l-3 2-1.437 2c-1.691 2.165-3.053 2.962-5.562 4l.191 2.32C314 202 314 202 312.777 203.492l-1.84 1.383a93.21 93.21 0 0 0-8.633 7.875l-1.988 2.047-3.948 4.136-1.881 1.934-1.671 1.753c-2.226 1.689-4.076 2.014-6.818 2.379v2l-1.937.875c-2.215.953-2.215.953-3.062 3.125l-2 1-1 3h-3l-2 1v-2h-4l-1-3 1.332-1.27c1.654-1.716 2.993-3.466 4.355-5.418l1.324-1.887L276 221l2 1 .688-3.187c1.124-3.979 3.109-6.169 6.313-8.812h2l.688-1.75c1.66-2.845 3.733-4.187 6.313-6.25 1.836-1.992 3.595-4.038 5.359-6.094 1.792-2.082 3.586-4.08 5.641-5.906h2l.625-1.625c1.941-3.353 4.214-6.104 7.375-8.375 3.375-.375 3.375-.375 6 0l.125-1.812c1.319-3.298 3.735-3.778 6.875-5.187l2-2zm-10 7l2 1z" fill="#2a6c7b"/><path d="M228 281v2h2v-2h3v2l-6.152 5.051c-2.267 2.392-2.863 3.65-2.848 6.949 1.673 2.402 1.673 2.402 4.125 4.5l2.516 2.375 5.234 4.625c2.894 3.405 4.319 7.109 5.125 11.5l-1 3-5 1v-2h-3l-3-3-3.25-1.687c-3.898-2.135-6.376-5.022-9.176-8.426-1.618-2.022-1.618-2.022-3.949-4.074-1.987-2.216-2.157-3.924-2.625-6.812l-2-1 2-4 .875-2.062c1.385-2.386 2.74-3.564 5.125-4.937l3 1 1-3c2.709-1.354 5.009-1.065 8-1z" fill="#32727f"/><path d="M466 207l2 1c.933 5.372 1.143 10.651 1.12 16.099l.003 2.347-.009 7.72v5.56l-.013 15.048-.008 15.743-.021 29.791-.022 33.925L469 404h-1l-1-37h-1V207z" fill="#2b6b78"/><path d="M238 310c3.844 1.566 6.16 4.021 9 7l2.5 2.5 7.5 7.5 2.313 2.188C261 331 261 331 261 333l3 1v2l1.938.875C268 338 268 338 269 340c-2.375.188-2.375.188-5 0-2-3-2-3-2-6h-4c-2.037 4.074-2.026 6.589-1 11h2l4 1-1 3 2 1a132.04 132.04 0 0 1 3 5l2 3c-3.549-1.314-5.274-3.432-7.578-6.355-1.535-1.776-3.176-3.212-4.984-4.707-2.903-2.403-5.089-4.983-7.437-7.937a115.84 115.84 0 0 0-3.25-2.687L243 334v-2h-2l-3.5-4.281c-2.08-2.383-4.467-4.278-6.949-6.227-1.744-1.678-2.59-3.287-3.551-5.492l5 2v2h3v2l5-1c.201-3.716.152-4.772-2-8v-3z" fill="#377481"/><path d="M502 242c3.366 1.122 4.062 2.004 6.25 4.688 2.835 3.357 5.795 6.152 9.184 8.934 2.153 1.896 3.81 4.12 5.566 6.379l3 2v2l1.781.758c2.512 1.406 3.885 2.909 5.719 5.117 2.398 2.836 4.818 5.55 7.5 8.125l-10-3v-3l-3 2h-3v7c-2.041-1.616-4.041-3.286-6-5v-2l-1.766-.781c-2.415-1.317-4.052-2.77-5.984-4.719l-1.859-1.844C508 267 508 267 508 265l-1.625-.625c-3.295-1.908-5.969-4.423-8.375-7.375v-2l-1.687-.625c-3.238-1.925-4.995-4.414-7.312-7.375 2.564 1.099 4.064 2.068 6 4.125 2.029 2.331 2.029 2.331 6 1.875l.188 1.875c.641 2.403.641 2.403 3.375 3.375L507 259v4l7 2-1-3c.938-3.187.938-3.187 2-6h-6l-.687-3.875c-.474-2.194-.474-2.194-1.312-4.125-2.483-1.597-2.483-1.597-5-2v-4z" fill="#326f7e"/><path d="M375 136l2 1c-3.902 5.377-7.865 10.072-13.008 14.297-2.468 2.11-4.713 4.39-6.992 6.703l-42 42-2-4 2.375-.187L318 195a124.97 124.97 0 0 0 2-5c2.125-.812 2.125-.812 4-1v-3c1.177-1.177 2.378-2.334 3.625-3.437 1.705-1.591 1.705-1.591 1.375-4.562l1-3h2l-2-3-1.187 1.438c-2.221 1.914-3.946 2.175-6.812 2.563l-1 5-4-2 2.875-3.5 1.617-1.969L323 172h2l1-3c1.62-1.712 3.296-3.372 5-5l1.594-1.656c1.43-1.486 2.915-2.919 4.406-4.344h2l.813-1.875C341 154 341 154 344 152l-2 7-4 1v2h-2l-2 7c3.344-.557 6.033-1.352 9-3v-5l2.313.563c2.777.666 2.777.666 5.688-.562l1-3 1-2h2l1-2 2 1 1-3h2v-3h2l-1-3 2-1v2h2v-2h3l1-5 1.938-.312L374 139l1-3z" fill="#2d6d7a"/><path d="M340 248l2 1-1.574.953c-3.207 1.968-6.222 3.876-9.113 6.297-2.526 1.912-4.214 2.331-7.312 2.75l-2 1c-.658 3.029-.658 3.029-1 6l5.25-1.375 2.953-.773c2.765-.725 2.765-.725 4.906-2.078C336 261 336 261 338.25 261.875L340 263c-24.98 13.66-24.98 13.66-38 18v-3h5l-.562-1.75c-.478-2.457-.195-3.894.563-6.25-5.618-.274-5.618-.274-11 1l-1 3c-2.312 1.313-2.312 1.313-5 2-2.168-.957-2.168-.957-4-2l1.769-.839 8.106-3.849 2.781-1.318L317 259l6.225-3.137 3.961-2c4.212-2.116 8.407-4.184 12.814-5.863z" fill="#36737e"/><path d="M277 279h1v70h-3v2h-2v2l-2 2 2 7-5-5-2.312-2.125C264 353 264 353 264 350l-3-1 1-3-3-1-1 2c-2.359-3.114-3.006-4.656-2.937-8.625.938-3.375.938-3.375 3-5.312L260 332v2h2l.625 2.438L264 339l2.813.438c3.454.61 3.916.956 6.063 3.5C275 346 275 346 275 348h2l-.045-2.575-.398-23.972-.205-12.325-.195-11.885-.078-4.544-.101-6.343-.061-3.654C276 280 276 280 277 279z" fill="#2f6e7c"/><path d="M292 205l4 1v2l3 1c-.801 3.434-1.454 5.454-4 8l-1 2-2 .875c-2.2.948-2.2.948-2.75 3.25L289 225h-3v2l-1.937.875c-2.215.953-2.215.953-3.062 3.125l-2 1-1 3h-3l-2 1v-2h-4l-1-3 1.332-1.27c1.654-1.716 2.993-3.466 4.355-5.418l1.324-1.887L276 221l2 1 .063-1.75c1.285-3.084 3.415-3.754 6.281-5.234 2.124-1.303 2.9-2.664 3.656-5.016h2l.438-1.937C291 206 291 206 292 205z" fill="#2a6c7a"/><path d="M504 170c2.979 4.426 4.108 6.661 4 12l-10.375 5-2.984 1.445-2.852 1.367-2.634 1.27C487 192 487 192 485 192v-4l3-1v-5l-8-1c1.696-3.391 5.512-4.406 8.813-6l2.197-1.078 4.083-1.992a66.18 66.18 0 0 0 3.96-2.109C501 169 501 169 504 170z" fill="#48818c"/><path d="M395 135c3.065 1.338 4.854 2.709 6.938 5.313 1.849 2.255 3.653 4.265 5.75 6.313 2.302 2.364 3.93 4.379 5.313 7.375-.062 2.188-.062 2.188-1 4-2.062 1.25-2.062 1.25-4 2l1 3h2l1 2h3v4l2 1h-2l6 8c-3.748-1.874-5.582-3.368-8.437-6.312l-2.391-2.449L408 167l-2.687-2.625c-1.82-1.87-3.466-3.745-5.125-5.75-2.216-2.637-4.546-4.853-7.187-7.062-4.023-3.404-7.029-7.231-10-11.562l4-1-1 3 3-1v3l3 1v2l3 1-1 2h2v2l3-1 4 2 3-1v-6l-2.687-.562c-4.246-1.842-6.161-4.401-8.312-8.437v-2z" fill="#2d6b7a"/><path d="M494 239l5 1v3l3-1v4l2.375.313C507 247 507 247 509 250l1 5 5 1v9l-2 1c-3.562-1.187-3.562-1.187-7-3-.625-1.875-.625-1.875-1-4-2.905-3.595-2.905-3.595-6.965-5.422-2.667-.758-3.57-1.997-5.285-4.141l-1.578-1.941L490 246l2-5h2v-2zm-134-99l-1 8h2l1-2 1 3h-2v3c-2 2.5-4.18 3.59-7 5l-1 2-4 2-1 2-4-1-.125 2.313C343 167 343 167 340.188 168.813 337 170 337 170 333 170l3-8h2v-2l1.938-.75L342 158l.438-1.812c.87-3.383 2.966-4.954 5.563-7.187l2.063-.5c3.044-.785 4.121-3.038 5.938-5.5 2.793-3 2.793-3 4-3z" fill="#296c7b"/><path d="M386 129l3 1 1 3 2.375.906c3.908 1.628 4.965 4.438 7 8 1.962 2.528 3.66 3.037 6.625 4.094.875 2 .875 2 1 4l-1 2h-2l-1 2-2.375-1c-2.468-1.119-2.468-1.119-4.625-1v-2h-2v-2l-2-1v-2l-4-1v-2h-2c-.382-1.656-.714-3.325-1-5l1-1c.041-2.333.042-4.667 0-7z" fill="#2a6c7b"/><path d="M466 120h7l-1 2h-3l.013 2.032.096 21.125.041 7.861.044 11.365.031 3.493c.001 8.19-.881 16.049-2.227 24.124-2.443-3.664-2.215-5.315-2.135-9.675l.029-2.041.13-6.671.076-4.628.227-12.177.221-12.427L466 120z" fill="#2d6b78"/><path d="M485 225c6.243 5.235 11.853 10.677 17 17h-2l-1 2-2-3c-1.053-1.158-1.053-1.158-3-2v2l-2 1c-.656 2.527-.656 2.527-1 5-3.838-1.564-6.167-4.025-9-7l-2.312-2.312L478 236l2-4 2 2 2-3h2l-2-5 1-1z" fill="#367482"/><path d="M251 322l3.313 2.813 1.863 1.582L261 331v2l3 1v2l1.938.875C268 338 268 338 269 340c-2.375.188-2.375.188-5 0-2-3-2-3-2-6h-4c-2.037 4.074-2.026 6.589-1 11h2l4 1-1 3 2 1a132.04 132.04 0 0 1 3 5l2 3c-3.551-1.315-5.278-3.436-7.582-6.363-1.513-1.746-3.123-3.122-4.918-4.574-4.51-3.771-7.792-7.608-9.437-13.312C247 331 247 331 249 328h2v-6z" fill="#31717e"/><path d="M302 199l2 1v3h5v-2l5-1v2c-1.223 1.199-1.223 1.199-3.062 2.688-7.066 5.98-13.438 12.731-19.937 19.313l-2-4h2l1-2 2 1v-4l3-2c0-2.621-.313-4.509-1-7l-5 1-1 3h-2l-.687 2.313c-1.593 3.263-3.076 4.15-6.312 5.688h-2c1.441-3.362 3.248-5.592 6-8h2l.688-1.75c1.65-2.828 3.71-4.298 6.313-6.25l2-2 1 5 1-3c2.063-1.687 2.063-1.687 4-3z" fill="#296d7d"/><path d="M522 262l4 2v2l1.781.758c2.512 1.406 3.885 2.909 5.719 5.117 2.398 2.836 4.818 5.55 7.5 8.125l-10-3v-3l-3 2h-3v7c-2.041-1.616-4.041-3.286-6-5v-2l-1.812-.75c-2.474-1.414-3.621-2.901-5.187-5.25 2.313-.625 2.313-.625 5-1l3 2-.125-2.812C520 265 520 265 522 262z" fill="#50848f"/><path d="M347 248l-4 4h-3v3l4-1v3h-2l-1 5-2.687-.187c-3.296-.079-3.296-.079-5.625 1.625-3.759 2.185-7.407 2.292-11.687 2.563.615-5.538.615-5.538 2.563-7.875L325 257l1 2c2.038-1.274 4.039-2.611 6-4v-2l5.813-3.062 3.27-1.723C344 247 344 247 347 248z" fill="#2a6c7b"/><path d="M548 287l5 4c-.458 4.608-1.931 6.274-5.441 9.197-5.419 4.658-10.469 9.584-15.504 14.651l-2.715 2.719-7.033 7.057-7.221 7.241L501 346l-2-3 3-1 1-2-2-1h3l1-4 2.375-.25c2.772-.478 2.772-.478 3.938-2.812L512 330l2 1-1-3 2.313-.687c3.268-1.596 4.025-3.146 5.688-6.312l2-2h3l-1-3 3-1 1-2 2-1 1-2h2l1-2-2-1 3-1 2 1-1-3 5-1-1-4 5-1 1-3c2.063-.687 2.063-.687 4-1l-.937-1.812C549 290 549 290 548 287z" fill="#6c959d"/><path d="M442 189l5 1v3l-1 1v2h2l1 6h4l1 4h-4v3l-4-1v2l-4.375 1.563-2.461.879C437 213 437 213 435 212l-1-5h3l1-3 1.555-1.336c2.088-2.404 1.71-4.168 1.57-7.289L441 190l1-1z" fill="#286c7a"/><path d="M307 270v3l3 1-3 1v3h-5v4l-3.812 2.063-2.145 1.16C294 286 294 286 291 285l2-2-2.5-1.25L288 280v-4l3.313-1.312c2.812-1.196 4.667-2.348 6.688-4.687 3.069-1.534 5.701-.55 9 0z" fill="#337380"/><path d="M387.688 227.813L391 228c.553 2.076 1 3.844 1 6l-4 1-.215 1.891C387 239 387 239 384.934 240.047l-2.496.703-2.504.734L378 242v1c-4.554.369-4.554.369-6.812-1.5L370 240l3-4-1-2h2v-2l3.313-.312c3.609-.303 3.609-.303 5.188-2.25 1.5-1.437 1.5-1.437 5.188-1.625z" fill="#296c7a"/><path d="M427 166l2.063 2.125c2.046 2.064 4.184 3.916 6.438 5.75 3.554 2.986 5.949 6.26 8.5 10.125h-7v-3l-3 1-1 5 2 1c.731 2.314 1.401 4.648 2 7l-1.875-1.937c-3.512-3.533-7.278-6.784-11.016-10.074C422 181 422 181 421 179l4 2c3.626-2.418 3.889-3.899 5-8v-2l-3 1v-6z" fill="#578893"/><path d="M288 286h1v128h-11v-6l2 1v3h8V286z" fill="#426e77"/><path d="M377 118c3.795.393 5.51 2.243 8 5l-1 2-5-5-1 2h-2l-.187 1.688c-1.157 3.293-3.278 4.955-5.812 7.313l-2.062 2.25c-2.032 1.835-3.262 2.368-5.937 2.75v2h-2l-2 5h-2l-.812 1.75c-1.205 2.283-2.595 4.224-4.187 6.25l-2-2-3 3-2-1 3.375-3.5 1.898-1.969C351 144 351 144 353 144l.762-1.789c1.393-2.487 2.848-3.792 5.051-5.586 2.629-2.209 4.931-4.37 7.063-7.062L368 127h2l2-4h2l.938-1.937C376 119 376 119 377 118z" fill="#649097"/><path d="M226 282c0 3 0 3-1 5l-5 1-1 2-2-1 .188 2.5c-.235 4.382-1.514 7.455-3.187 11.5h-2c-1.461-2.647-2-3.894-2-7l-2-1 2-4 .875-2.062c1.385-2.386 2.74-3.564 5.125-4.937l3 1 1-3c2.491-1.245 3.411-.777 6 0z" fill="#327380"/><path d="M421 215l-1 2h2l-1 5-6 2v1l-10 2-1-4 2-3-1-2 6.313-2.062 3.551-1.16C418 214 418 214 421 215z" fill="#276d7b"/><path d="M259 236c.641 1.832.641 1.832 1 4-2.538 3.032-4.225 4.742-8 6-1.653 2.277-3.054 4.653-4.5 7.066L246 255h-3c-1.557 1.863-1.557 1.863-2.937 4.25-2.092 3.296-4.013 6.245-7.062 8.75h-2l-1 3c-3.062 1.188-3.062 1.188-6 2 0-2 0-2 2.313-4.437L229 266l1.688-1.812C232 263 232 263 234 263l2-4h2l.625-1.625c1.908-3.295 4.423-5.969 7.375-8.375h2v-2h2l.773-1.766c1.344-2.448 2.845-4.052 4.852-5.984l1.914-1.859L259 236z" fill="#83a7ad"/><path d="M375 136l2 1c-3.902 5.377-7.865 10.072-13.008 14.297-2.468 2.11-4.713 4.39-6.992 6.703l-11 11-2.656 2.719C341 174 341 174 338 176l-1-4 5-1 1-3h2v-3h2v-2h2v-2h2l1-3 1-2h2l1-2 2 1 1-3h2v-3h2l-1-3 2-1v2h2v-2h3l1-5 1.938-.312L374 139l1-3z" fill="#639095"/><path d="M424 167v2h2l2 2h2c.885 2.478 1.116 3.661.25 6.188C429 179 429 179 426 180l-1 2-5-5-2.812-2.687C415 172 415 172 415 170c5.625-3 5.625-3 9-3z" fill="#296c7b"/><path d="M224 273v5l-1.812.75c-2.475 1.414-3.522 2.979-5.187 5.25h-2l-1 3h-2l-.312 1.75c-.785 2.57-1.993 4.187-3.687 6.25l4 1h-2l1 4c-2.846-1.276-5.181-2.415-7-5-.169-3.036.639-4.568 2.566-6.879L212 283h2v-2l5-5 1.688-1.812C222 273 222 273 224 273z" fill="#719ea3"/><path d="M277 279h1v70h-5c-2.193-2.819-3.352-5.5-4-9 4.875 4.625 4.875 4.625 6 8h2l-.045-2.575-.398-23.972-.205-12.325-.195-11.885-.078-4.544-.101-6.343-.061-3.654C276 280 276 280 277 279z" fill="#8fafb4"/><path d="M495 332c0 3 0 3-2 5.063L491 339v2l2 2h-2v4l3 1-2 3 2-1 1-3 4 1-9 9c-2-3-2-3-2-5-.776-3.075-.776-3.075-3-5l2-3v-4c1.75-2.141 1.75-2.141 4-4.25l2.25-2.141L495 332z" fill="#538795"/><path d="M284 275l2 1c-3.625 3-3.625 3-7 3l.038 1.791.389 18.693.146 6.947L280 345l-2 1v-68l6-3z" fill="#46747d"/><path d="M533 297c0 3 0 3-1.68 4.684l-2.195 1.754c-2.974 2.382-4.448 4.189-6.125 7.563-1.691 1.414-1.691 1.414-3.562 2.625-2.723 1.721-2.723 1.721-4.437 4.375h-4c1.393-3.253 2.95-5.034 5.688-7.25 2.983-2.502 5.518-5.064 8-8.062 2.507-2.973 4.413-4.742 8.313-5.687z" fill="#588a96"/><path d="M317 180l1 3h-2l-1 3h-3l-.625 3.188c-1.295 4.528-3.494 6.225-7.375 8.813-2.868.867-5.002 1-8 1l4.375-4.5 2.461-2.531C305 190 305 190 307 190l.625-1.625c1.937-3.346 5.222-8.375 9.375-8.375z" fill="#3d737e"/><path d="M385 139l2 1-1 2 3-1v3l3 1v2l3 1-1 2h2v2l3-1c2 3 2 3 2 4l2 1 .438 1.813c.669 2.6 1.873 4.131 3.563 6.188-3.008-1.318-4.74-2.604-6.75-5.187-2.232-2.728-4.541-4.996-7.25-7.25-4.023-3.404-7.029-7.231-10-11.562l2-1z" fill="#84a9b1"/><path d="M255 256h3v2c-1.355 1.332-1.355 1.332-3.187 2.813-3.142 2.553-5.972 5.301-8.812 8.188l-6.25 6.313-1.641 1.666L234 281h-1v-5l2.375-.187L238 275c1.184-2.376 1.184-2.376 2-5 1.438-1.812 1.438-1.812 3-3h3v-2h3v-5l5-1 1-3z" fill="#6a9599"/><path d="M313 200l1 2-3.062 2.563C303.94 210.662 297.518 217.399 291 224l-2-4h2l1-2 2 1v-4l3-2 2-2h3c1.414-2.639 2.372-5.071 3-8h4v-2l4-1z" fill="#628e94"/><path d="M489 247c2.564 1.099 4.064 2.068 6 4.125 2.029 2.331 2.029 2.331 6 1.875l.188 1.875c.641 2.403.641 2.403 3.375 3.375L507 259v4l6 2-1 5-4-3v-2l-1.625-.625c-3.295-1.908-5.969-4.423-8.375-7.375v-2l-1.687-.625c-3.238-1.925-4.995-4.414-7.312-7.375z" fill="#89aeb5"/><path d="M332 265l2 1-3.008 1.504-1.972.986-4.317 2.156-10.812 5.443-1.925.976-5.27 2.684C304 281 304 281 302 281v-3h5l1-3 3 1 1-3 2.875-.25L318 272l.883-1.973C320 268 320 268 322.313 267.207l2.688-.395c3.622-.52 3.622-.52 7-1.812z" fill="#749ea5"/><path d="M337 176l1 2-3.062 2.563C327.94 186.662 321.518 193.399 315 200l-2-4 2.375-.187L318 195a124.97 124.97 0 0 0 2-5c2.125-.812 2.125-.812 4-1v-3l7-7h3v-2l3-1z" fill="#5f8c92"/><path d="M548 287l5 4c-.435 4.756-2.156 6.48-5.75 9.5-4.261 3.637-4.261 3.637-8.25 7.563-2 1.938-2 1.938-4 1.938v-2l-2-1 3-1 2 1-1-3 5-1-1-4 5-1 1-3c2.063-.687 2.063-.687 4-1l-.937-1.812C549 290 549 290 548 287z" fill="#5b8a94"/><path d="M412 157l7 3c-.486 3.123-.999 5.996-2 9h-2l-2-4h-3l1-2-3 1-2-5 2.438-.437c2.484-.304 2.484-.304 3.563-1.562zm3 5l1 2z" fill="#276c7a"/><path d="M219 291h4l.754 2.238c1.356 3.005 2.82 4.673 5.184 6.949l2.09 2.043c2.052 1.926 2.052 1.926 4.973 3.77l-2 4-1.687-2.312c-2.299-2.672-4.301-3.944-7.312-5.687-2-3-2-3-2-6l-5-1 1-4z" fill="#4e7c86"/><path d="M502 242c3.366 1.122 4.062 2.004 6.25 4.688 2.344 2.781 4.679 5.205 7.5 7.5 2.806 2.301 4.607 4.527 6.25 7.813l-5-1v-3h-2v-2h-6l-.687-3.875c-.474-2.194-.474-2.194-1.312-4.125-2.483-1.597-2.483-1.597-5-2v-4z" fill="#507f89"/><path d="M413 228l-12.375 6.063-3.562 1.76-3.398 1.65-3.142 1.539L388 240l-2-1c1.054-3.056 1.972-3.982 4.75-5.75 3.25-1.25 3.25-1.25 6-1.125 4.364-.168 7.226-2.001 10.98-4.129C410 227 410 227 413 228z" fill="#82a6ac"/><path d="M226 282c0 3 0 3-1 5l-5 1-1 2-2-1-1 2v-2l-2-1 2-4 3 1 1-3c2.491-1.245 3.411-.777 6 0z" fill="#256c7b"/><path d="M398 222l-1.937.313L394 223l-1 3h-2v2l-3.312.313c-3.609.303-3.609.303-5.187 2.25-1.5 1.438-1.5 1.438-5.187 1.625L374 232c3.686-3.033 7.766-5.102 12-7.25l2.156-1.141 2.094-1.062 1.891-.974c2.296-.708 3.615-.332 5.859.427z" fill="#618c96"/><path d="M277 218h2l-1 5-2-1-1.242 1.969-1.633 2.531-1.617 2.531L270 231h-2l-1 3h-4v2l-3-1h2l.727-1.754c1.524-2.688 3.285-4.201 5.648-6.184 3.28-2.817 5.959-5.65 8.625-9.062z" fill="#6e9aa0"/><path d="M305 265c2 1 2 1 3 3h-2v2l-2.75-.062c-3.732.052-3.732.052-7.25 1.063l-1 3c-2.312 1.313-2.312 1.313-5 2l-4-2 9.375-4.562 2.695-1.326 2.578-1.24 2.38-1.158L305 265z" fill="#66949d"/><path d="M289 224l1 2-1.469 1.25c-5.074 4.371-9.853 8.96-14.531 13.75l-2-4h3l-1-3 2-1v2h2l.375-2.437L279 230l2-1 2-2h3v-2l3-1z" fill="#56878d"/><path d="M251 322l3.313 2.813 1.863 1.582L261 331v2l3 1v2l1.938.875C268 338 268 338 269 340c-2.375.188-2.375.188-5 0-2-3-2-3-2-6h-2v-2l-5-1-1-4-3 1v-6z" fill="#7399a1"/><path d="M434 181h3l1 2 3 1 1 5c-4.625 2.125-4.625 2.125-8 1l-1-8 1-1z" fill="#266b7c"/><path d="M513 328h3c-.581 3.428-1.686 5.045-4.16 7.453l-1.904 1.875-1.998 1.922-2.01 1.969L501 346l-2-3 3-1 1-2-2-1h3l1-4 2.375-.25c2.772-.478 2.772-.478 3.938-2.812L512 330l2 1-1-3z" fill="#67939c"/><path d="M495 183l1 2 1-2h7c-2.738 2.738-6.028 4.028-9.5 5.625l-2.09.984C487.257 192 487.257 192 485 192v-4l10-5z" fill="#55878f"/><path d="M342 249l-1.574.953c-3.236 1.986-6.263 3.91-9.176 6.359C329 258 329 258 325 258c-1.672.304-3.341.631-5 1 3.298-3.605 7.19-5.218 11.563-7.25l2.365-1.141 2.264-1.062 2.069-.974C340 248 340 248 342 249z" fill="#639299"/><path d="M269 241l4 1-14 14-2-4 1-2 4 1 1-5 4-1v-2h2v-2z" fill="#56878c"/><path d="M411 163l1 2h3v4l2 1h-2l6 8c-3.77-1.885-5.766-3.497-8.687-6.437l-2.387-2.371C408 167 408 167 407 164c2-1 2-1 4-1z" fill="#77a0a8"/><path d="M224 273v5l-1.812.75c-2.475 1.414-3.522 2.979-5.187 5.25h-2l-1 3c-2.062.688-2.062.688-4 1l2-3h2v-4c2.313-2.562 2.313-2.562 5-5l1.688-1.812C222 273 222 273 224 273z" fill="#588890"/><path d="M531 274v3h3l-1 6c-3.169 0-4.437-.206-7-2-.75-2.625-.75-2.625-1-5 3.75-2 3.75-2 6-2z" fill="#286d7f"/><path d="M343 152c0 2.621-.313 4.509-1 7l-4 1v2h-2l-.687 2.438L334 167c-2.625.813-2.625.813-5 1 2.161-3.98 4.627-6.973 8-10h2l.875-1.875C341 154 341 154 343 152z" fill="#85adb2"/><path d="M295 200c.625 1.875.625 1.875 1 4-2 2-2 2-5 3l-1 3h-2l-.687 2.313c-1.593 3.263-3.076 4.15-6.312 5.688h-2c1.441-3.362 3.248-5.592 6-8h2l.688-1.75c1.642-2.814 3.748-4.277 6.313-6.25l1-2z" fill="#6d959c"/><path d="M395 135c3.065 1.338 4.854 2.709 6.938 5.313l5.813 6.438C410 149 410 149 412 152l-6-1v-5l-2.687-.562c-4.246-1.842-6.161-4.401-8.312-8.437v-2z" fill="#6b919a"/><path d="M385 125c4.509 2.319 6.939 5.065 10 9l-2 1c-2.125-.937-2.125-.937-4-2v-3h-2l-1 6 2 1-4-1c-1.026-4.411-1.037-6.926 1-11z" fill="#367382"/><path d="M476 196h1l-.019 1.817.082 8.246-.033 2.857c.131 5.375.646 8.38 4.529 12.264 1.124.966 2.264 1.915 3.441 2.816-1.895.578-1.895.578-4 1-2.486-1.842-3.002-3.005-4-6l-2 1 1-24z" fill="#749ca4"/><path d="M363 248l5 1c-3.031 2.442-6.09 4.13-9.625 5.75l-2.914 1.359L353 257l-2-1c1.93-2.895 3.043-4.275 6-6 3.25-.187 3.25-.187 6 0v-2z" fill="#6d939e"/><path d="M386 241l-6.875 3.563-1.973 1.037L372 248l-2-1v-6l6 1v-1c3.736-.764 6.348-1.072 10 0z" fill="#5a8f97"/><path d="M328 168l1 2c-2.175 4.694-2.175 4.694-5.187 5.813L322 176l-1 5-4-2 2.875-3.5 1.617-1.969L323 172h2l1-3 2-1z" fill="#6fa1a8"/><path d="M253 342l2.188 2.063c2.633 2.255 2.633 2.255 5.625 1.688L263 345l-1 4 2 1 3 5 2 3c-3.542-1.312-5.268-3.419-7.562-6.344-2.109-2.43-4.567-4.364-7.082-6.359L253 344v-2z" fill="#9dbabf"/><path d="M359 142l-3 1c-1.05 1.85-1.05 1.85-2 4l-3 4-2-2-3 3-2-1c10.107-10.631 10.107-10.631 15-9z" fill="#60909b"/><path d="M288.438 275.25L290 276h-2v2l-2.937 1.375c-3.133 1.283-3.133 1.283-4.062 3.625l-.562 7.125-.254 3.883L280 297h-1v-18c7-4 7-4 9.438-3.75z" fill="#336974"/><path d="M340 262c-3.31 3.741-7.2 4.963-12 6-3.562-.312-3.562-.312-6-1 3.584-1.864 7.285-3.418 11-5 2.667-1.333 4.167-.671 7 0z" fill="#4b7d85"/><path d="M237 264l-4 4h-2l-1 3-6 2c0-2 0-2 2.375-4.5L229 266l2-2c3.556-1.222 3.556-1.222 6 0z" fill="#5b8a93"/><path d="M385 139l2 1-1 2 3-1v3l3 1v2l3 1-1 2c-3.851-.537-5.318-2.116-7.75-5.062l-1.859-2.223L383 141l2-2z" fill="#6a949c"/><path d="M511 318l1 3-2.75 1.125c-3.436 1.656-3.436 1.656-5.25 4.938-2.371 3.482-3.974 4.022-8 4.938l2-3h2l.781-1.766c1.317-2.415 2.77-4.052 4.719-5.984l1.844-1.859C509 318 509 318 511 318z" fill="#7ca5af"/><path d="M259 236c.641 1.832.641 1.832 1 4-2.538 3.032-4.225 4.742-8 6l-1 2-3-1h2l.773-1.766c1.344-2.448 2.845-4.052 4.852-5.984l1.914-1.859L259 236z" fill="#84a7ad"/><path d="M297 212h3c-.55 3.875-2.276 5.596-5.062 8.25l-2.223 2.141L291 224l-2-4h2l1-2 2 1v-4l3-2v-1z" fill="#5f8b92"/><path d="M446 208l3 1c-4.119 3.72-8.717 6.308-14 8l-2-1v-2l8-3v-1h5v-2z" fill="#6e979d"/><path d="M439 196l3 1c-.187 2.875-.187 2.875-1 6-2.375 1.438-2.375 1.438-5 2l-3-1-1 2-2-2 3.813-2 2.145-1.125C438 200 438 200 441 200l-2-4z" fill="#619197"/><path d="M548 287l5 4c0 2.125 0 2.125-1 5-2.498 2.255-5.198 4.143-8 6v-4h2l1-3c2.063-.687 2.063-.687 4-1l-.937-1.812C549 290 549 290 548 287z" fill="#97b8bf"/><path d="M374 232l1 4-2.082.367-2.73.508-2.707.492c-2.708.545-2.708.545-5.48 2.633-2.187-.375-2.187-.375-4-1l6.875-3.5 1.973-1.012C371.773 232 371.773 232 374 232z" fill="#678f97"/><path d="M491 174l2 1c-1.39 3.358-2.729 5.321-6 7-3.75-.312-3.75-.312-7-1 1.394-2.788 3.175-3.304 5.938-4.687l2.715-1.387L491 174z" fill="#5e8c95"/><path d="M238 310c3.826 1.559 6.251 3.954 9 7l1 3h-5l1-4-5-1-1-5z" fill="#6c929a"/><path d="M227 281l1 2h2v-2h3c0 2 0 2-1.68 3.691l-2.195 1.871-2.18 1.879C225 290 225 290 223 291c.612-3.671 1.278-7.278 4-10z" fill="#639095"/><path d="M541 280c6.571 5 6.571 5 8 10-4.252-.472-6.373-2.773-9-6 .188-2.312.188-2.312 1-4z" fill="#608994"/><path d="M485 225l1.461 1.277 1.914 1.66 1.898 1.652c1.683 1.48 1.683 1.48 3.727 2.41v2h-2l-1 2-.812-1.937c-1.074-2.394-1.074-2.394-4.187-3.062-1.187-2.562-1.187-2.562-2-5l1-1z" fill="#5d8791"/><path d="M240 270l2 1c-1.382 3.21-2.924 5.049-5.625 7.25l-1.914 1.578L233 281v-5l2.375-.187L238 275c1.375-2.476 1.375-2.476 2-5z" fill="#5d8a90"/><path d="M518 263l1 4h2l-1 6-1.875-1.437c-2.032-1.587-2.032-1.587-4.125-2.562l1-3h2l1-3z" fill="#266b7c"/><path d="M525 283c8.056 1.976 8.056 1.976 10 5 .688 3.188.688 3.188 1 6h-3v-3c-1.765-1.871-1.765-1.871-4-3.625L525 284v-1z" fill="#7aa2a9"/><path d="M375 136l2 1-3.25 4.375-1.828 2.461c-1.894 2.132-3.305 3.11-5.922 4.164v-3h3l1-5 1.938-.312L374 139l1-3z" fill="#699199"/><path d="M523 319h3c-1.408 3.215-3.103 5.322-5.625 7.75l-1.914 1.859L517 330l-2-3 3-1 3-5 2-2z" fill="#769ba3"/><path d="M407 215l2 1c-2.31 4.741-2.31 4.741-5.5 5.938C401 222 401 222 398 220l4.375-2.562 2.461-1.441L407 215z" fill="#5c8f97"/><path d="M315 180h2l1 3h-2l-1 3-7 2 2.938-3.437 1.652-1.934L315 180z" fill="#7ea3ad"/><path d="M259 330l2 1v2l3 1v2l1.938.875C268 338 268 338 269 340c-2.375.188-2.375.188-5 0-2-3-2-3-2-6h-2l-1-4z" fill="#8daab1"/><path d="M412 152c6.571 4 6.571 4 8 8l-4 1v-2l-3-1-1-6z" fill="#618b94"/><path d="M277 218h2l-1 5-2-1-2.312 2.5C271 227 271 227 268 227l2.25-1.687c2.825-2.221 2.825-2.221 4.938-5.062L277 218z" fill="#86aab0"/><path d="M490 245l4 1v3h3v2l2 1-2 2-3.5-3.937-1.969-2.215C490 246 490 246 490 245z" fill="#396d7a"/><path d="M424 220l3 1-5.875 3.063-3.305 1.723L415 227l-2-1 1-3c1.777-.695 1.777-.695 3.938-1.125 2.25-.466 4-.844 6.063-1.875z" fill="#83a6b0"/><path d="M444 184l3.438 2.875 1.934 1.617C451 190 451 190 452 192c-2.702-.365-4.584-.699-6.812-2.312C444 188 444 188 444 184z" fill="#5b8990"/><path d="M433 217c-3.641 3.338-7.286 3.979-12 5 1-3 1-3 2.625-4.187 3.179-1.087 6.042-.941 9.375-.812z" fill="#55828a"/><path d="M426 207l-2 5-10 1c1.339-2.677 2.721-2.951 5.438-4.125l2.434-1.07C424 207 424 207 426 207z" fill="#68919a"/><path d="M420 173l1 2h2l.313 1.938L424 179l3 1-2 2c-2.648-2.578-4.944-4.916-7-8l2-1z" fill="#3e727e"/><path d="M269 340c4.875 4.625 4.875 4.625 6 8l3 1c-2.312.313-2.312.313-5 0-2.193-2.819-3.352-5.5-4-9z" fill="#658e96"/><path d="M418 214c-3.006 3.006-5.824 2.596-10 3l1-3c3.478-1.159 5.459-.708 9 0z" fill="#497b85"/><path d="M305 190l2 1c-1.265 3.794-2.617 4.067-6 6-1.751 1.582-1.751 1.582-3 3l-2-1 9-9z" fill="#9fc2c8"/><path d="M378.938 118.063c2.606 1.184 4.157 2.828 6.063 4.938l-1 2-5-5-1 2-4-1c2.415-3.019 2.415-3.019 4.938-2.937z" fill="#a6c7ca"/><path d="M384 229c-1.062 1.5-1.062 1.5-3 3-3.687.188-3.687.188-7 0 5.625-4.312 5.625-4.312 10-3z" fill="#739ba3"/><path d="M289 224l1 2-8 6-1-4 5-1v-2l3-1z" fill="#6f979d"/><path d="M414 226l-3.875 2-2.18 1.125C406 230 406 230 404 230c.75-1.937.75-1.937 2-4 3.002-1.301 4.93-.841 8 0z" fill="#397079"/><path d="M497 187l-4.875 2.5-2.742 1.406C487 192 487 192 485 192v-2l3-1 1-2c3.284-.951 4.697-1.101 8 0z" fill="#81a9af"/><path d="M337 176l1 2-8 6-1-4 5-1v-2l3-1z" fill="#6f979d"/><path d="M387 127c4.142 1.381 5.322 3.598 8 7-2 1-2 1-4 .438-2.797-2.011-3.151-4.182-4-7.437z" fill="#7d9ea6"/><path d="M484 343l2 1-1.375 1.125c-2.095 2.418-2.745 4.829-3.625 7.875l-1-2-2-1 6-7z" fill="#6e9ba0"/><path d="M219 291h4l1 5-6-1 1-4z" fill="#608c9a"/><path d="M346 256l5 1c-3.125 2.645-6.088 3.844-10 5l1-4 4-1v-1z" fill="#71a5aa"/><path d="M386 241l-10 4v-4c3.945-.807 6-1 10 0z" fill="#769ea2"/><path d="M496 236l6 5-2 1-1 2-2-3-1-1v-4z" fill="#57858f"/><path d="M313 200l1 2-7 5v-3l-2-1h4v-2l4-1z" fill="#699399"/><path d="M328 168l1 2c-2.175 4.694-2.175 4.694-5.187 5.813L322 176c3.75-6.875 3.75-6.875 6-8z" fill="#5d8890"/><path d="M227 316c2.749.687 4.534 1.356 6.223 3.691L236 325c-4.281-1.585-6.295-4.469-9-8v-1z" fill="#97b5ba"/><path d="M532 274c4.248.472 6.2 2.967 9 6-6.646-1.477-6.646-1.477-8.437-4.125L532 274z" fill="#7799a1"/><path d="M248 248l2 1-4 6h-2c.313-2.375.313-2.375 1-5l3-2z" fill="#679198"/><path d="M244 331l3 1 2 6c-2 0-2 0-4.125-2L243 334l1-3z" fill="#7ea1a7"/><path d="M508 264l5 1-1 5c-2-1.312-2-1.312-4-3v-3z" fill="#779aa5"/><path d="M502 242c4.142 1.381 5.322 3.598 8 7l-2 1-1.312-1.437c-1.711-1.799-1.711-1.799-4.687-2.562v-4z" fill="#87a6ad"/><path d="M479 232l2 1v2l2 1-1 4c-2.062-1.75-2.062-1.75-4-4 .25-2.25.25-2.25 1-4z" fill="#58848f"/><path d="M363 145l1 2h2c-1.37 3.161-1.989 3.993-5 6v-4h2l-1-3 1-1z" fill="#58868d"/><path d="M305 265c2 1 2 1 3 3h-2v2l-4-1v-3l3-1z" fill="#4c7e8d"/><path d="M516 255c4.875 4.75 4.875 4.75 6 7l-5-1-1-6z" fill="#7d9ea6"/><path d="M358 240v2c-5.458 3.101-5.458 3.101-8.203 2.59L348 244l3.875-2 2.18-1.125C356 240 356 240 358 240z" fill="#82a3a9"/><path d="M295 200c.625 1.875.625 1.875 1 4-2.463 2.463-4.707 2.998-8 4l2.375-2.312c2.698-2.596 2.698-2.596 4.625-5.687z" fill="#8bacb1"/><path d="M359 136l1 4-5 3-2-1 6-6z" fill="#92b8bd"/><path d="M230 304l5 1v3l-2 2-3-6z" fill="#618b95"/><path d="M524 279h2v2l5 2-1 2c-2.437-.75-2.437-.75-5-2-.812-2.125-.812-2.125-1-4z" fill="#3d6e7b"/><path d="M269 241l4 1-6 5v-4h2v-2z" fill="#659197"/><path d="M394 235h-3l-1 4-4 1c1.802-5.02 2.656-6.603 8-5z" fill="#508188"/><path d="M267 230l1 3-5 1v2l-3-1h2l1-3c2.063-1.187 2.063-1.187 4-2z" fill="#69929a"/><path d="M297 212h3c-.312 1.875-.312 1.875-1 4l-3 2-2-3 3-2v-1z" fill="#57868b"/><path d="M335 162l1 2c-2 3-2 3-4.625 3.688L329 168c1.049-2.622 1.649-3.794 4.125-5.25L335 162z" fill="#628c94"/></svg>