<?xml version="1.0" encoding="UTF-8"?>
<svg id="Ebene_1" data-name="Ebene 1" xmlns="http://www.w3.org/2000/svg" width="144.29mm" height="91.02mm" xmlns:xlink="http://www.w3.org/1999/xlink" viewBox="0 0 409.01 258">
  <defs>
    <clipPath id="clippath">
      <rect width="409" height="258" style="fill: none; stroke-width: 0px;"/>
    </clipPath>
  </defs>
  <path d="m268.77,191.26c1.05,0,1.05-1.63,0-1.63s-1.05,1.63,0,1.63" style="fill: #4b4945; stroke-width: 0px;"/>
  <g style="clip-path: url(#clippath);">
    <path d="m292.19,236.57H21.66v-91.24h366.02v91.24h-95.49ZM113.45,55.65c1.08-1.85,2.17-3.7,3.25-5.53h175.55c5.02,8.24,10.04,16.76,15.05,25.15,9.53,15.93,19.05,31.8,28.58,47.72.21.34.41.67.62.98H73.43c3.92-6.71,7.85-13.37,11.78-20.08,9.42-16.09,18.84-32.14,28.25-48.23Zm-65.18,42.68c13.55-20.01,27.09-39.93,40.64-59.93,3.78-5.58,7.56-11.18,11.34-16.67h208.39c6.39,9.15,12.79,18.77,19.18,28.18,13.73,20.21,27.46,40.34,41.18,60.56,3.07,4.52,6.15,8.92,9.22,13.49h-17.09c-.22-.61-.5-1.19-.85-1.78-6.07-10.15-12.15-20.28-18.22-30.43-9.53-15.92-19.05-31.84-28.58-47.77-1.98-3.32-3.97-6.61-5.95-9.93-2.04-3.4-5.59-5.31-9.52-5.31H110.69c-3.91,0-7.43,2.05-9.4,5.42-.68,1.17-1.36,2.32-2.04,3.48-3.44,5.89-6.89,11.77-10.33,17.65-9.72,16.62-19.44,33.23-29.17,49.85-3.59,6.13-7.18,12.22-10.77,18.35-.09.17-.19.46-.28.46h-17.84c5.8-8.55,11.6-17.07,17.4-25.64Zm348.56,46.99h.12c1.67,0,1.43.31-.12,0Zm9.71-17.36s.03-.02.02-.03c-7.59-11.17-15.16-22.35-22.75-33.52-13.73-20.21-27.45-40.42-41.18-60.63-4.92-7.26-9.85-14.51-14.78-21.76-1.23-1.82-2.47-3.64-3.71-5.46-.22-.32-.44-.59-.66-.92-2.29-3.37-5.51-5.28-9.63-5.28H98.55c-2.19,0-4.63-.26-6.76.33-3.98,1.09-5.9,4.17-7.98,7.26-4.04,5.97-8.09,11.92-12.13,17.89-13.48,19.9-26.96,39.79-40.43,59.7-8.28,12.21-16.55,24.42-24.82,36.64-.02.02-.03.03-.04.05-.76,1.13-1.22,2.38-1.41,3.67-.52.35-1,.77-1.45,1.22-1.33,1.31-2.35,2.95-2.86,4.79-.53,1.68-.64,3.46-.33,5.14v110.09c0,5.82,4.88,10.78,10.69,10.78h387.47c5.81,0,10.52-4.96,10.52-10.78v-112.32c0-2.58-.88-4.99-2.47-6.87" style="fill: #100f0d; stroke-width: 0px;"/>
  </g>
  <path d="m240.78,171.13c-4.45,0-8.18,2.76-9.8,6.61-1.57.46-3.19.78-4.81,1.03-7.85.91-15.81.89-23.69.89-7.89,0-15.84.02-23.69-.89-1.63-.25-3.24-.57-4.82-1.03-1.62-3.85-5.35-6.61-9.8-6.61-5.72,0-10.78,4.86-10.67,10.68.08,4.23,1.78,8.58,5.05,11.39,3.04,2.61,6.49,4.27,10.36,5.31,7.76,2.1,16.18,2.27,24.17,2.43,8.94.19,17.92.21,26.85-.29,7.7-.43,15.78-1.12,22.73-4.74,5.29-2.75,8.66-8.16,8.78-14.1.11-5.82-4.94-10.68-10.67-10.68" style="fill: #100f0d; stroke-width: 0px;"/>
</svg>